<svg viewBox="0 0 640 160" xmlns="http://www.w3.org/2000/svg">
  <defs>
    <linearGradient id="bg" x1="0%" y1="0%" x2="100%" y2="100%">
      <stop offset="0%" stop-color="#125446"/>
      <stop offset="100%" stop-color="#0A2E25"/>
    </linearGradient>
  </defs>

  <!-- Icon badge -->
  <rect x="0" y="0" width="160" height="160" rx="36" fill="url(#bg)"/>
  <g transform="translate(0,0) scale(0.15625)">
    <path d="
        M 632 312
        C 632 244, 566 206, 494 206
        C 412 206, 352 250, 352 322
        C 352 396, 420 420, 496 444
        C 512 449, 512 449, 528 454
        C 604 478, 672 502, 672 576
        C 672 648, 612 692, 530 692
        C 458 692, 392 654, 392 586
      "
      fill="none"
      stroke="#F4EFE6"
      stroke-width="84"
      stroke-linecap="round"
      stroke-linejoin="round"
    />
    <circle cx="646" cy="278" r="48" fill="#3DDC97"/>
  </g>

  <!-- Wordmark -->
  <text x="192" y="102" font-family="Inter, -apple-system, sans-serif" font-weight="700"
        font-size="58" letter-spacing="-1.2" fill="#0A2E25">Spend<tspan fill="#125446">Sense</tspan></text>
</svg>
